ffmpeg started on 2025-06-20 at 17:19:38
Report written to "D:\Convert\FFMetrics\reports\psnr_report-6.txt"
Log level: 32
Command line:
ffmpeg -hide_banner -nostdin -i "G:\\\xc0\xed\xe8\xec\xe5\\[\xd2\xee\xef]\\\xc2\xee\xeb\xf7\xe8\xf6\xe0 \xe8 \xef\xf0\xff\xed\xee\xf1\xf2\xe8\\\xd2\xee\xf0\xe3\xee\xe2\xe5\xf6 \xe2\xf1\xf2\xf0\xe5\xf7\xe0\xe5\xf2 \xec\xf3\xe4\xf0\xf3\xfe \xe2\xee\xeb\xf7\xe8\xf6\xf3\\DC_Ookami_to_Koushinryou_Merchant_Meets_the_Wise_Wolf_18_Telegram_HEVC.mkv" -i "G:\\\xc0\xed\xe8\xec\xe5\\[\xd2\xee\xef]\\\xc2\xee\xeb\xf7\xe8\xf6\xe0 \xe8 \xef\xf0\xff\xed\xee\xf1\xf2\xe8\\\xd2\xee\xf0\xe3\xee\xe2\xe5\xf6 \xe2\xf1\xf2\xf0\xe5\xf7\xe0\xe5\xf2 \xec\xf3\xe4\xf0\xf3\xfe \xe2\xee\xeb\xf7\xe8\xf6\xf3\\DC_Ookami_to_Koushinryou_Merchant_Meets_the_Wise_Wolf_18_Telegram.mp4" -lavfi "[0:v]settb=AVTB,setpts=PTS-STARTPTS,format=pix_fmts=yuv420p10,fps=24000/1001,scale=1920:1080:flags=bicubic[main];[1:v]settb=AVTB,setpts=PTS-STARTPTS,format=pix_fmts=yuv420p,fps=24000/1001,scale=1920:1080:flags=bicubic[ref];[main][ref]psnr=eof_action=endall:stats_file='D\\:/Convert/FFMetrics/logs/psnr_logfile-6.txt'" -f null -
Input #0, matroska,webm, from 'G:\Аниме\[Топ]\Волчица и пряности\Торговец встречает мудрую волчицу\DC_Ookami_to_Koushinryou_Merchant_Meets_the_Wise_Wolf_18_Telegram_HEVC.mkv':
  Metadata:
    COMPATIBLE_BRANDS: isomiso2avc1mp41
    MAJOR_BRAND     : isom
    MINOR_VERSION   : 512
    ENCODER         : Lavf61.7.100
  Duration: 00:23:57.65, start: -0.021000, bitrate: 709 kb/s
  Stream #0:0: Video: hevc (Main 10), yuv420p10le(tv, bt709, progressive), 1920x1080 [SAR 1:1 DAR 16:9], 23.98 fps, 23.98 tbr, 1k tbn (default)
      Metadata:
        HANDLER_NAME    : VideoHandler
        VENDOR_ID       : [0][0][0][0]
        ENCODER         : Lavc61.19.100 libx265
        BPS             : 513225
        DURATION        : 00:23:56.559708333
        NUMBER_OF_FRAMES: 34443
        NUMBER_OF_BYTES : 92159807
        _STATISTICS_WRITING_APP: mkvpropedit v66.0.0 ('Josie') 64-bit
        _STATISTICS_WRITING_DATE_UTC: 2025-06-20 12:08:22
        _STATISTICS_TAGS: BPS DURATION NUMBER_OF_FRAMES NUMBER_OF_BYTES
  Stream #0:1: Audio: aac (LC), 48000 Hz, stereo, fltp (default)
      Metadata:
        HANDLER_NAME    : SoundHandler
        VENDOR_ID       : [0][0][0][0]
        ENCODER         : Lavc61.19.100 aac
        BPS             : 193045
        DURATION        : 00:23:57.653000000
        NUMBER_OF_FRAMES: 67391
        NUMBER_OF_BYTES : 34691551
        _STATISTICS_WRITING_APP: mkvpropedit v66.0.0 ('Josie') 64-bit
        _STATISTICS_WRITING_DATE_UTC: 2025-06-20 12:08:22
        _STATISTICS_TAGS: BPS DURATION NUMBER_OF_FRAMES NUMBER_OF_BYTES
Input #1, mov,mp4,m4a,3gp,3g2,mj2, from 'G:\Аниме\[Топ]\Волчица и пряности\Торговец встречает мудрую волчицу\DC_Ookami_to_Koushinryou_Merchant_Meets_the_Wise_Wolf_18_Telegram.mp4':
  Metadata:
    major_brand     : isom
    minor_version   : 512
    compatible_brands: isomiso2avc1mp41
    encoder         : Lavf60.16.100
  Duration: 00:23:57.63, start: 0.000000, bitrate: 3222 kb/s
  Stream #1:0[0x1](und): Video: h264 (High) (avc1 / 0x31637661), yuv420p(tv, bt709, progressive), 1920x1080 [SAR 1:1 DAR 16:9], 3077 kb/s, 23.98 fps, 23.98 tbr, 24k tbn (default)
      Metadata:
        handler_name    : VideoHandler
        vendor_id       : [0][0][0][0]
        encoder         : Lavc60.31.102 h264_qsv
  Stream #1:1[0x2](und): Audio: aac (HE-AACv2) (mp4a / 0x6134706D), 48000 Hz, stereo, fltp, 144 kb/s (default)
      Metadata:
        handler_name    : SoundHandler
        vendor_id       : [0][0][0][0]
Stream mapping:
  Stream #0:0 (hevc) -> settb:default
  Stream #1:0 (h264) -> settb:default
  psnr:default -> Stream #0:0 (wrapped_avframe)
  Stream #0:1 -> #0:1 (aac (native) -> pcm_s16le (native))
Output #0, null, to 'pipe:':
  Metadata:
    COMPATIBLE_BRANDS: isomiso2avc1mp41
    MAJOR_BRAND     : isom
    MINOR_VERSION   : 512
    encoder         : Lavf61.7.100
  Stream #0:0: Video: wrapped_avframe, yuv420p10le(tv, bt709, progressive), 1920x1080 [SAR 1:1 DAR 16:9], q=2-31, 200 kb/s, 23.98 fps, 23.98 tbn
      Metadata:
        encoder         : Lavc61.19.100 wrapped_avframe
  Stream #0:1: Audio: pcm_s16le, 48000 Hz, stereo, s16, 1536 kb/s (default)
      Metadata:
        HANDLER_NAME    : SoundHandler
        VENDOR_ID       : [0][0][0][0]
        _STATISTICS_TAGS: BPS DURATION NUMBER_OF_FRAMES NUMBER_OF_BYTES
        BPS             : 193045
        DURATION        : 00:23:57.653000000
        NUMBER_OF_FRAMES: 67391
        NUMBER_OF_BYTES : 34691551
        _STATISTICS_WRITING_APP: mkvpropedit v66.0.0 ('Josie') 64-bit
        _STATISTICS_WRITING_DATE_UTC: 2025-06-20 12:08:22
        encoder         : Lavc61.19.100 pcm_s16le
frame=  186 fps=0.0 q=-0.0 size=N/A time=00:00:07.75 bitrate=N/A speed=15.2x    frame=  435 fps=426 q=-0.0 size=N/A time=00:00:18.14 bitrate=N/A speed=17.8x    frame=  704 fps=456 q=-0.0 size=N/A time=00:00:29.36 bitrate=N/A speed=  19x    frame=  974 fps=474 q=-0.0 size=N/A time=00:00:40.62 bitrate=N/A speed=19.8x    frame= 1238 fps=482 q=-0.0 size=N/A time=00:00:51.63 bitrate=N/A speed=20.1x    frame= 1426 fps=461 q=-0.0 size=N/A time=00:00:59.47 bitrate=N/A speed=19.2x    frame= 1616 fps=449 q=-0.0 size=N/A time=00:01:07.40 bitrate=N/A speed=18.7x    frame= 1827 fps=444 q=-0.0 size=N/A time=00:01:16.20 bitrate=N/A speed=18.5x    frame= 2051 fps=442 q=-0.0 size=N/A time=00:01:25.54 bitrate=N/A speed=18.4x    frame= 2250 fps=437 q=-0.0 size=N/A time=00:01:33.84 bitrate=N/A speed=18.2x    frame= 2450 fps=432 q=-0.0 size=N/A time=00:01:42.18 bitrate=N/A speed=  18x    frame= 2636 fps=427 q=-0.0 size=N/A time=00:01:49.94 bitrate=N/A speed=17.8x    frame= 2873 fps=429 q=-0.0 size=N/A time=00:01:59.82 bitrate=N/A speed=17.9x    frame= 3066 fps=425 q=-0.0 size=N/A time=00:02:07.87 bitrate=N/A speed=17.7x    frame= 3254 fps=421 q=-0.0 size=N/A time=00:02:15.71 bitrate=N/A speed=17.6x    frame= 3466 fps=420 q=-0.0 size=N/A time=00:02:24.56 bitrate=N/A speed=17.5x    frame= 3744 fps=427 q=-0.0 size=N/A time=00:02:36.15 bitrate=N/A speed=17.8x    frame= 4024 fps=434 q=-0.0 size=N/A time=00:02:47.83 bitrate=N/A speed=18.1x    frame= 4310 fps=440 q=-0.0 size=N/A time=00:02:59.76 bitrate=N/A speed=18.3x    frame= 4600 fps=446 q=-0.0 size=N/A time=00:03:11.85 bitrate=N/A speed=18.6x    frame= 4879 fps=450 q=-0.0 size=N/A time=00:03:23.49 bitrate=N/A speed=18.8x    frame= 5144 fps=453 q=-0.0 size=N/A time=00:03:34.54 bitrate=N/A speed=18.9x    frame= 5426 fps=457 q=-0.0 size=N/A time=00:03:46.30 bitrate=N/A speed=19.1x    frame= 5719 fps=462 q=-0.0 size=N/A time=00:03:58.52 bitrate=N/A speed=19.3x    frame= 5996 fps=465 q=-0.0 size=N/A time=00:04:10.08 bitrate=N/A speed=19.4x    frame= 6290 fps=469 q=-0.0 size=N/A time=00:04:22.34 bitrate=N/A speed=19.6x    frame= 6577 fps=472 q=-0.0 size=N/A time=00:04:34.31 bitrate=N/A speed=19.7x    frame= 6843 fps=474 q=-0.0 size=N/A time=00:04:45.41 bitrate=N/A speed=19.8x    frame= 7115 fps=476 q=-0.0 size=N/A time=00:04:56.75 bitrate=N/A speed=19.8x    frame= 7401 fps=478 q=-0.0 size=N/A time=00:05:08.68 bitrate=N/A speed=19.9x    frame= 7678 fps=480 q=-0.0 size=N/A time=00:05:20.23 bitrate=N/A speed=  20x    frame= 7974 fps=483 q=-0.0 size=N/A time=00:05:32.58 bitrate=N/A speed=20.1x    frame= 8251 fps=485 q=-0.0 size=N/A time=00:05:44.13 bitrate=N/A speed=20.2x    frame= 8540 fps=487 q=-0.0 size=N/A time=00:05:56.18 bitrate=N/A speed=20.3x    frame= 8831 fps=489 q=-0.0 size=N/A time=00:06:08.32 bitrate=N/A speed=20.4x    frame= 9111 fps=491 q=-0.0 size=N/A time=00:06:20.00 bitrate=N/A speed=20.5x    frame= 9383 fps=492 q=-0.0 size=N/A time=00:06:31.34 bitrate=N/A speed=20.5x    frame= 9687 fps=494 q=-0.0 size=N/A time=00:06:44.02 bitrate=N/A speed=20.6x    frame= 9974 fps=496 q=-0.0 size=N/A time=00:06:55.99 bitrate=N/A speed=20.7x    frame=10264 fps=497 q=-0.0 size=N/A time=00:07:08.09 bitrate=N/A speed=20.7x    frame=10547 fps=499 q=-0.0 size=N/A time=00:07:19.89 bitrate=N/A speed=20.8x    frame=10822 fps=499 q=-0.0 size=N/A time=00:07:31.36 bitrate=N/A speed=20.8x    frame=11097 fps=500 q=-0.0 size=N/A time=00:07:42.83 bitrate=N/A speed=20.9x    frame=11381 fps=501 q=-0.0 size=N/A time=00:07:54.68 bitrate=N/A speed=20.9x    frame=11672 fps=503 q=-0.0 size=N/A time=00:08:06.81 bitrate=N/A speed=  21x    frame=11974 fps=504 q=-0.0 size=N/A time=00:08:19.41 bitrate=N/A speed=  21x    frame=12237 fps=504 q=-0.0 size=N/A time=00:08:30.38 bitrate=N/A speed=  21x    frame=12534 fps=506 q=-0.0 size=N/A time=00:08:42.77 bitrate=N/A speed=21.1x    frame=12811 fps=507 q=-0.0 size=N/A time=00:08:54.32 bitrate=N/A speed=21.1x    frame=13112 fps=508 q=-0.0 size=N/A time=00:09:06.87 bitrate=N/A speed=21.2x    frame=13400 fps=509 q=-0.0 size=N/A time=00:09:18.89 bitrate=N/A speed=21.2x    frame=13696 fps=510 q=-0.0 size=N/A time=00:09:31.23 bitrate=N/A speed=21.3x    frame=13975 fps=511 q=-0.0 size=N/A time=00:09:42.87 bitrate=N/A speed=21.3x    frame=14262 fps=512 q=-0.0 size=N/A time=00:09:54.84 bitrate=N/A speed=21.3x    frame=14549 fps=513 q=-0.0 size=N/A time=00:10:06.81 bitrate=N/A speed=21.4x    frame=14853 fps=514 q=-0.0 size=N/A time=00:10:19.49 bitrate=N/A speed=21.4x    frame=15138 fps=515 q=-0.0 size=N/A time=00:10:31.38 bitrate=N/A speed=21.5x    frame=15431 fps=515 q=-0.0 size=N/A time=00:10:43.60 bitrate=N/A speed=21.5x    frame=15724 fps=516 q=-0.0 size=N/A time=00:10:55.82 bitrate=N/A speed=21.5x    frame=16000 fps=517 q=-0.0 size=N/A time=00:11:07.37 bitrate=N/A speed=21.6x    frame=16295 fps=518 q=-0.0 size=N/A time=00:11:19.63 bitrate=N/A speed=21.6x    frame=16577 fps=518 q=-0.0 size=N/A time=00:11:31.39 bitrate=N/A speed=21.6x    frame=16851 fps=518 q=-0.0 size=N/A time=00:11:42.82 bitrate=N/A speed=21.6x    frame=17125 fps=518 q=-0.0 size=N/A time=00:11:54.25 bitrate=N/A speed=21.6x    frame=17395 fps=519 q=-0.0 size=N/A time=00:12:05.51 bitrate=N/A speed=21.6x    frame=17675 fps=519 q=-0.0 size=N/A time=00:12:17.19 bitrate=N/A speed=21.6x    frame=17955 fps=519 q=-0.0 size=N/A time=00:12:28.87 bitrate=N/A speed=21.7x    frame=18248 fps=520 q=-0.0 size=N/A time=00:12:41.09 bitrate=N/A speed=21.7x    frame=18532 fps=521 q=-0.0 size=N/A time=00:12:52.93 bitrate=N/A speed=21.7x    frame=18826 fps=521 q=-0.0 size=N/A time=00:13:05.20 bitrate=N/A speed=21.7x    frame=19090 fps=521 q=-0.0 size=N/A time=00:13:16.21 bitrate=N/A speed=21.7x    frame=19383 fps=522 q=-0.0 size=N/A time=00:13:28.43 bitrate=N/A speed=21.8x    frame=19666 fps=522 q=-0.0 size=N/A time=00:13:40.23 bitrate=N/A speed=21.8x    frame=19935 fps=522 q=-0.0 size=N/A time=00:13:51.45 bitrate=N/A speed=21.8x    frame=20224 fps=523 q=-0.0 size=N/A time=00:14:03.50 bitrate=N/A speed=21.8x    frame=20474 fps=522 q=-0.0 size=N/A time=00:14:13.93 bitrate=N/A speed=21.8x    frame=20752 fps=522 q=-0.0 size=N/A time=00:14:25.53 bitrate=N/A speed=21.8x    frame=21019 fps=522 q=-0.0 size=N/A time=00:14:36.66 bitrate=N/A speed=21.8x    frame=21293 fps=522 q=-0.0 size=N/A time=00:14:48.09 bitrate=N/A speed=21.8x    frame=21588 fps=523 q=-0.0 size=N/A time=00:15:00.39 bitrate=N/A speed=21.8x    frame=21857 fps=523 q=-0.0 size=N/A time=00:15:11.61 bitrate=N/A speed=21.8x    frame=22120 fps=523 q=-0.0 size=N/A time=00:15:22.58 bitrate=N/A speed=21.8x    frame=22382 fps=523 q=-0.0 size=N/A time=00:15:33.51 bitrate=N/A speed=21.8x    frame=22638 fps=522 q=-0.0 size=N/A time=00:15:44.19 bitrate=N/A speed=21.8x    frame=22915 fps=522 q=-0.0 size=N/A time=00:15:55.74 bitrate=N/A speed=21.8x    frame=23188 fps=523 q=-0.0 size=N/A time=00:16:07.13 bitrate=N/A speed=21.8x    frame=23464 fps=523 q=-0.0 size=N/A time=00:16:18.64 bitrate=N/A speed=21.8x    frame=23727 fps=523 q=-0.0 size=N/A time=00:16:29.61 bitrate=N/A speed=21.8x    frame=23990 fps=522 q=-0.0 size=N/A time=00:16:40.58 bitrate=N/A speed=21.8x    frame=24260 fps=523 q=-0.0 size=N/A time=00:16:51.84 bitrate=N/A speed=21.8x    frame=24513 fps=522 q=-0.0 size=N/A time=00:17:02.39 bitrate=N/A speed=21.8x    frame=24791 fps=522 q=-0.0 size=N/A time=00:17:13.99 bitrate=N/A speed=21.8x    frame=25062 fps=522 q=-0.0 size=N/A time=00:17:25.29 bitrate=N/A speed=21.8x    frame=25353 fps=523 q=-0.0 size=N/A time=00:17:37.47 bitrate=N/A speed=21.8x    frame=25616 fps=523 q=-0.0 size=N/A time=00:17:48.40 bitrate=N/A speed=21.8x    frame=25891 fps=523 q=-0.0 size=N/A time=00:17:59.87 bitrate=N/A speed=21.8x    frame=26171 fps=523 q=-0.0 size=N/A time=00:18:11.54 bitrate=N/A speed=21.8x    frame=26462 fps=523 q=-0.0 size=N/A time=00:18:23.68 bitrate=N/A speed=21.8x    frame=26729 fps=523 q=-0.0 size=N/A time=00:18:34.82 bitrate=N/A speed=21.8x    frame=27011 fps=524 q=-0.0 size=N/A time=00:18:46.62 bitrate=N/A speed=21.8x    frame=27255 fps=523 q=-0.0 size=N/A time=00:18:56.76 bitrate=N/A speed=21.8x    frame=27528 fps=523 q=-0.0 size=N/A time=00:19:08.14 bitrate=N/A speed=21.8x    frame=27810 fps=523 q=-0.0 size=N/A time=00:19:19.90 bitrate=N/A speed=21.8x    frame=28088 fps=524 q=-0.0 size=N/A time=00:19:31.50 bitrate=N/A speed=21.8x    frame=28355 fps=524 q=-0.0 size=N/A time=00:19:42.63 bitrate=N/A speed=21.8x    frame=28624 fps=523 q=-0.0 size=N/A time=00:19:53.85 bitrate=N/A speed=21.8x    frame=28865 fps=523 q=-0.0 size=N/A time=00:20:03.91 bitrate=N/A speed=21.8x    frame=29142 fps=523 q=-0.0 size=N/A time=00:20:15.46 bitrate=N/A speed=21.8x    frame=29409 fps=523 q=-0.0 size=N/A time=00:20:26.60 bitrate=N/A speed=21.8x    frame=29675 fps=523 q=-0.0 size=N/A time=00:20:37.69 bitrate=N/A speed=21.8x    frame=29930 fps=523 q=-0.0 size=N/A time=00:20:48.33 bitrate=N/A speed=21.8x    frame=30202 fps=523 q=-0.0 size=N/A time=00:20:59.67 bitrate=N/A speed=21.8x    frame=30391 fps=521 q=-0.0 size=N/A time=00:21:07.55 bitrate=N/A speed=21.7x    frame=30636 fps=521 q=-0.0 size=N/A time=00:21:17.77 bitrate=N/A speed=21.7x    frame=30911 fps=521 q=-0.0 size=N/A time=00:21:29.24 bitrate=N/A speed=21.7x    frame=31156 fps=521 q=-0.0 size=N/A time=00:21:39.46 bitrate=N/A speed=21.7x    frame=31424 fps=521 q=-0.0 size=N/A time=00:21:50.64 bitrate=N/A speed=21.7x    frame=31658 fps=520 q=-0.0 size=N/A time=00:22:00.40 bitrate=N/A speed=21.7x    frame=31909 fps=520 q=-0.0 size=N/A time=00:22:10.87 bitrate=N/A speed=21.7x    frame=32142 fps=519 q=-0.0 size=N/A time=00:22:20.58 bitrate=N/A speed=21.7x    frame=32310 fps=518 q=-0.0 size=N/A time=00:22:27.59 bitrate=N/A speed=21.6x    frame=32468 fps=516 q=-0.0 size=N/A time=00:22:34.18 bitrate=N/A speed=21.5x    frame=32745 fps=516 q=-0.0 size=N/A time=00:22:45.73 bitrate=N/A speed=21.5x    frame=32986 fps=516 q=-0.0 size=N/A time=00:22:55.79 bitrate=N/A speed=21.5x    frame=33205 fps=515 q=-0.0 size=N/A time=00:23:04.92 bitrate=N/A speed=21.5x    frame=33413 fps=514 q=-0.0 size=N/A time=00:23:13.60 bitrate=N/A speed=21.4x    frame=33632 fps=513 q=-0.0 size=N/A time=00:23:22.73 bitrate=N/A speed=21.4x    frame=33888 fps=513 q=-0.0 size=N/A time=00:23:33.41 bitrate=N/A speed=21.4x    frame=34116 fps=513 q=-0.0 size=N/A time=00:23:42.92 bitrate=N/A speed=21.4x    frame=34282 fps=511 q=-0.0 size=N/A time=00:23:49.84 bitrate=N/A speed=21.3x    [Parsed_psnr_10 @ 000001c333613140] PSNR y:49.707368 u:51.488079 v:51.993074 average:50.283633 min:40.866003 max:inf
[out#0/null @ 000001c332db5480] video:14800KiB audio:269564KiB subtitle:0KiB other streams:0KiB global headers:0KiB muxing overhead: unknown
frame=34443 fps=511 q=-0.0 Lsize=N/A time=00:23:56.56 bitrate=N/A speed=21.3x    
